<?xml version="1.0" encoding="UTF-8" standalone="no"?>
<!-- Created with Inkscape (http://www.inkscape.org/) -->

<svg
   width="512"
   height="512"
   viewBox="0 0 512 512"
   version="1.1"
   id="svg1"
   xml:space="preserve"
   xmlns="http://www.w3.org/2000/svg"
   xmlns:svg="http://www.w3.org/2000/svg"><defs
     id="defs1" /><g
     id="layer1"><g
       class="recharts-layer"
       id="g17"
       transform="matrix(3.0403794,0,0,3.0403794,-445.44891,-124.04745)"><g
         class="recharts-layer recharts-pie-sector"
         tabindex="-1"
         id="g2"><g
           class="recharts-layer recharts-shape"
           id="g1"><path
             cx="231"
             cy="128"
             fill="#f05e0f"
             name="1 guess"
             tabindex="-1"
             class="recharts-sector"
             d="m 312.2,128 a 81.2,81.2 0 0 0 -0.9939,-12.6659 l -43.5405,6.8758 A 37.12,37.12 0 0 1 268.12,128 Z"
             id="path1" /></g></g><g
         class="recharts-layer recharts-pie-sector"
         tabindex="-1"
         id="g4"><g
           class="recharts-layer recharts-shape"
           id="g3"><path
             cx="231"
             cy="128"
             fill="#ec6922"
             name="2 guesses"
             tabindex="-1"
             class="recharts-sector"
             d="M 310.7152,112.5426 A 81.2,81.2 0 0 0 295.0775,78.125 L 260.2926,105.2 a 37.12,37.12 0 0 1 7.1486,15.7338 z"
             id="path2" /></g></g><g
         class="recharts-layer recharts-pie-sector"
         tabindex="-1"
         id="g6"><g
           class="recharts-layer recharts-shape"
           id="g5"><path
             cx="231"
             cy="128"
             fill="#e9702f"
             name="3 guesses"
             tabindex="-1"
             class="recharts-sector"
             d="M 297.9011,72.0707 A 87.2,87.2 0 0 0 182.6782,55.4132 L 210.43,97.1007 a 37.12,37.12 0 0 1 49.049,7.0909 z"
             id="path4" /></g></g><g
         class="recharts-layer recharts-pie-sector"
         tabindex="-1"
         id="g8"><g
           class="recharts-layer recharts-shape"
           id="g7"><path
             cx="231"
             cy="128"
             fill="#e67b41"
             name="4 guesses"
             tabindex="-1"
             class="recharts-sector"
             d="m 183.6716,62.0192 a 81.2,81.2 0 0 0 -33.7951,69.5041 l 44.0385,-1.9126 a 37.12,37.12 0 0 1 15.4492,-31.7733 z"
             id="path6" /></g></g><g
         class="recharts-layer recharts-pie-sector"
         tabindex="-1"
         id="g10"><g
           class="recharts-layer recharts-shape"
           id="g9"><path
             cx="231"
             cy="128"
             fill="#e48653"
             name="5 guesses"
             tabindex="-1"
             class="recharts-sector"
             d="m 150.0489,134.3524 a 81.2,81.2 0 0 0 41.9839,64.8866 l 21.1536,-38.6726 a 37.12,37.12 0 0 1 -19.1926,-29.6625 z"
             id="path8" /></g></g><g
         class="recharts-layer recharts-pie-sector"
         tabindex="-1"
         id="g12"><g
           class="recharts-layer recharts-shape"
           id="g11"><path
             cx="231"
             cy="128"
             fill="#e38d5f"
             name="6 guesses"
             tabindex="-1"
             class="recharts-sector"
             d="m 194.5428,200.5556 a 81.2,81.2 0 0 0 61.8071,4.586 l -13.7614,-41.8769 a 37.12,37.12 0 0 1 -28.2547,-2.0964 z"
             id="path10" /></g></g><g
         class="recharts-layer recharts-pie-sector"
         tabindex="-1"
         id="g14"><g
           class="recharts-layer recharts-shape"
           id="g13"><path
             cx="231"
             cy="128"
             fill="#e2976f"
             name="7 guesses"
             tabindex="-1"
             class="recharts-sector"
             d="m 259.0266,204.2099 a 81.2,81.2 0 0 0 18.7192,-9.8151 l -25.3763,-36.0429 a 37.12,37.12 0 0 1 -8.5573,4.4869 z"
             id="path12" /></g></g><g
         class="recharts-layer recharts-pie-sector"
         tabindex="-1"
         id="g16"><g
           class="recharts-layer recharts-shape"
           id="g15"><path
             cx="231"
             cy="128"
             fill="#d5544d"
             name="Failed"
             tabindex="-1"
             class="recharts-sector"
             d="m 280.0345,192.7229 a 81.2,81.2 0 0 0 32.116,-61.8891 l -44.0531,-1.5383 a 37.12,37.12 0 0 1 -14.6816,28.2921 z"
             id="path14" /></g></g></g></g></svg>
