<svg width="512" height="512" viewBox="0 0 512 512" xmlns="http://www.w3.org/2000/svg"><mask id="satori_om-id"><rect x="0" y="0" width="512" height="512" fill="#fff"/></mask><mask id="satori_om-id-0"><rect x="121" y="121" width="270" height="270" fill="#fff"/></mask><rect x="121" y="121" width="270" height="270" fill="transparent"/><defs><clipPath id="satori_bc-id-0-0"><path x="121" y="121" width="270" height="270" d="M129,121 h254 a8,8 0 0 1 8,8 v254 a8,8 0 0 1 -8,8 h-254 a8,8 0 0 1 -8,-8 v-254 a8,8 0 0 1 8,-8"/></clipPath></defs><mask id="satori_ms-id-0-0-1" maskUnits="userSpaceOnUse"><rect x="0" y="0" width="512" height="512" fill="#fff"/><path x="121" y="121" width="270" height="270" fill="#000"  stroke-width="-4" d="M129,121 h254 a8,8 0 0 1 8,8 v254 a8,8 0 0 1 -8,8 h-254 a8,8 0 0 1 -8,-8 v-254 a8,8 0 0 1 8,-8"/></mask><mask id="satori_ms-id-0-0-1-neg" maskUnits="userSpaceOnUse"><path x="121" y="123" width="270" height="270" fill="#fff" stroke="#000" stroke-width="4" d="M129,123 h254 a8,8 0 0 1 8,8 v254 a8,8 0 0 1 -8,8 h-254 a8,8 0 0 1 -8,-8 v-254 a8,8 0 0 1 8,-8"/></mask><defs><filter id="satori_s-id-0-0-1" x="-0.7407407407407408%" y="-0.7407407407407408%" width="101.48148148148148%" height="101.48148148148148%"><feGaussianBlur stdDeviation="2" result="b"/><feFlood flood-color="rgba(0, 0, 0, 0.1)" in="SourceGraphic" result="f"/><feComposite in="f" in2="b" operator="in"/></filter></defs><g mask="url(#satori_ms-id-0-0-1)" filter="url(#satori_s-id-0-0-1)" opacity="1"><g mask="url(#satori_ms-id-0-0-1-neg)"><path x="121" y="123" width="270" height="270" fill="#fff" stroke="#fff" stroke-width="-4" d="M129,123 h254 a8,8 0 0 1 8,8 v254 a8,8 0 0 1 -8,8 h-254 a8,8 0 0 1 -8,-8 v-254 a8,8 0 0 1 8,-8"/></g></g><mask id="satori_ms-id-0-0-0" maskUnits="userSpaceOnUse"><rect x="0" y="0" width="512" height="512" fill="#fff"/><path x="121" y="121" width="270" height="270" fill="#000"  stroke-width="6" d="M129,121 h254 a8,8 0 0 1 8,8 v254 a8,8 0 0 1 -8,8 h-254 a8,8 0 0 1 -8,-8 v-254 a8,8 0 0 1 8,-8"/></mask><defs><filter id="satori_s-id-0-0-0" x="-38.148148148148145%" y="-38.148148148148145%" width="176.2962962962963%" height="176.2962962962963%"><feGaussianBlur stdDeviation="10" result="b"/><feFlood flood-color="rgba(0, 0, 0, 0.1)" in="SourceGraphic" result="f"/><feComposite in="f" in2="b" operator="in"/></filter></defs><g mask="url(#satori_ms-id-0-0-0)" filter="url(#satori_s-id-0-0-0)" opacity="1"><path x="121" y="121" width="270" height="270" fill="#fff" stroke="#fff" stroke-width="6" d="M129,121 h254 a8,8 0 0 1 8,8 v254 a8,8 0 0 1 -8,8 h-254 a8,8 0 0 1 -8,-8 v-254 a8,8 0 0 1 8,-8"/></g><mask id="satori_om-id-0-0"><rect x="122" y="122" width="268" height="268" fill="#fff"/><path width="270" height="270" fill="none" stroke="#000" stroke-width="2" d="M123.343,123.343 A8,8 0 0 1 129,121 h254 a8,8 0 0 1 8,8 v254 a8,8 0 0 1 -8,8 h-254 a8,8 0 0 1 -8,-8 v-254 A8,8 0 0 1 123.343,123.343"/></mask><path x="121" y="121" width="270" height="270" fill="#f7f7f8" d="M129,121 h254 a8,8 0 0 1 8,8 v254 a8,8 0 0 1 -8,8 h-254 a8,8 0 0 1 -8,-8 v-254 a8,8 0 0 1 8,-8"/><path width="270" height="270" clip-path="url(#satori_bc-id-0-0)" fill="none" stroke="#e5e5e5" stroke-width="2" d="M123.343,123.343 A8,8 0 0 1 129,121 h254 a8,8 0 0 1 8,8 v254 a8,8 0 0 1 -8,8 h-254 a8,8 0 0 1 -8,-8 v-254 A8,8 0 0 1 123.343,123.343"/><mask id="satori_om-id-0-0-0"><rect x="142" y="142" width="228" height="50" fill="#fff"/></mask><mask id="satori_om-id-0-0-0-0"><rect x="142" y="142" width="108" height="50" fill="#fff"/></mask><path x="142" y="142" width="108" height="50" fill="#df3d3d" d="M144,142 h104 a2,2 0 0 1 2,2 v46 a2,2 0 0 1 -2,2 h-104 a2,2 0 0 1 -2,-2 v-46 a2,2 0 0 1 2,-2"/><mask id="satori_om-id-0-0-0-1"><rect x="260" y="142" width="50" height="50" fill="#fff"/></mask><path x="260" y="142" width="50" height="50" fill="#df3d3d" d="M262,142 h46 a2,2 0 0 1 2,2 v46 a2,2 0 0 1 -2,2 h-46 a2,2 0 0 1 -2,-2 v-46 a2,2 0 0 1 2,-2"/><mask id="satori_om-id-0-0-0-2"><rect x="320" y="142" width="50" height="50" fill="#fff"/></mask><path x="320" y="142" width="50" height="50" fill="#2dab5b" d="M322,142 h46 a2,2 0 0 1 2,2 v46 a2,2 0 0 1 -2,2 h-46 a2,2 0 0 1 -2,-2 v-46 a2,2 0 0 1 2,-2"/><mask id="satori_om-id-0-0-1"><rect x="142" y="202" width="228" height="50" fill="#fff"/></mask><mask id="satori_om-id-0-0-1-0"><rect x="142" y="202" width="108" height="50" fill="#fff"/></mask><path x="142" y="202" width="108" height="50" fill="#df3d3d" d="M144,202 h104 a2,2 0 0 1 2,2 v46 a2,2 0 0 1 -2,2 h-104 a2,2 0 0 1 -2,-2 v-46 a2,2 0 0 1 2,-2"/><mask id="satori_om-id-0-0-1-1"><rect x="260" y="202" width="50" height="50" fill="#fff"/></mask><path x="260" y="202" width="50" height="50" fill="#2dab5b" d="M262,202 h46 a2,2 0 0 1 2,2 v46 a2,2 0 0 1 -2,2 h-46 a2,2 0 0 1 -2,-2 v-46 a2,2 0 0 1 2,-2"/><mask id="satori_om-id-0-0-1-2"><rect x="320" y="202" width="50" height="50" fill="#fff"/></mask><path x="320" y="202" width="50" height="50" fill="#df3d3d" d="M322,202 h46 a2,2 0 0 1 2,2 v46 a2,2 0 0 1 -2,2 h-46 a2,2 0 0 1 -2,-2 v-46 a2,2 0 0 1 2,-2"/><mask id="satori_om-id-0-0-2"><rect x="142" y="262" width="228" height="50" fill="#fff"/></mask><mask id="satori_om-id-0-0-2-0"><rect x="142" y="262" width="108" height="50" fill="#fff"/></mask><path x="142" y="262" width="108" height="50" fill="#df3d3d" d="M144,262 h104 a2,2 0 0 1 2,2 v46 a2,2 0 0 1 -2,2 h-104 a2,2 0 0 1 -2,-2 v-46 a2,2 0 0 1 2,-2"/><mask id="satori_om-id-0-0-2-1"><rect x="260" y="262" width="50" height="50" fill="#fff"/></mask><path x="260" y="262" width="50" height="50" fill="#2dab5b" d="M262,262 h46 a2,2 0 0 1 2,2 v46 a2,2 0 0 1 -2,2 h-46 a2,2 0 0 1 -2,-2 v-46 a2,2 0 0 1 2,-2"/><mask id="satori_om-id-0-0-2-2"><rect x="320" y="262" width="50" height="50" fill="#fff"/></mask><path x="320" y="262" width="50" height="50" fill="#2dab5b" d="M322,262 h46 a2,2 0 0 1 2,2 v46 a2,2 0 0 1 -2,2 h-46 a2,2 0 0 1 -2,-2 v-46 a2,2 0 0 1 2,-2"/><mask id="satori_om-id-0-0-3"><rect x="142" y="322" width="228" height="50" fill="#fff"/></mask><mask id="satori_om-id-0-0-3-0"><rect x="142" y="322" width="108" height="50" fill="#fff"/></mask><path x="142" y="322" width="108" height="50" fill="#2dab5b" d="M144,322 h104 a2,2 0 0 1 2,2 v46 a2,2 0 0 1 -2,2 h-104 a2,2 0 0 1 -2,-2 v-46 a2,2 0 0 1 2,-2"/><mask id="satori_om-id-0-0-3-1"><rect x="260" y="322" width="50" height="50" fill="#fff"/></mask><path x="260" y="322" width="50" height="50" fill="#2dab5b" d="M262,322 h46 a2,2 0 0 1 2,2 v46 a2,2 0 0 1 -2,2 h-46 a2,2 0 0 1 -2,-2 v-46 a2,2 0 0 1 2,-2"/><mask id="satori_om-id-0-0-3-2"><rect x="320" y="322" width="50" height="50" fill="#fff"/></mask><path x="320" y="322" width="50" height="50" fill="#2dab5b" d="M322,322 h46 a2,2 0 0 1 2,2 v46 a2,2 0 0 1 -2,2 h-46 a2,2 0 0 1 -2,-2 v-46 a2,2 0 0 1 2,-2"/></svg>